<svg xmlns="http://www.w3.org/2000/svg" viewBox="0 0 120 120" role="img" aria-label="zapasy">
<defs>
<linearGradient id="b" x1="0" y1="0" x2="1" y2="1"><stop offset="0" stop-color="#ff6a5e" stop-opacity=".62"/><stop offset=".55" stop-color="#e3242b" stop-opacity=".42"/><stop offset="1" stop-color="#8e0f18" stop-opacity=".55"/></linearGradient>
<linearGradient id="h" x1="0" y1="0" x2="0" y2="1"><stop offset="0" stop-color="#fff" stop-opacity=".42"/><stop offset=".45" stop-color="#fff" stop-opacity="0"/></linearGradient>
<linearGradient id="s" x1="0" y1="0" x2="1" y2="1"><stop offset="0" stop-color="#fff" stop-opacity=".75"/><stop offset=".5" stop-color="#fff" stop-opacity=".15"/><stop offset="1" stop-color="#fff" stop-opacity=".4"/></linearGradient>
<filter id="g" x="-30%" y="-30%" width="160%" height="160%"><feGaussianBlur stdDeviation="2.2" result="b"/><feMerge><feMergeNode in="b"/><feMergeNode in="SourceGraphic"/></feMerge></filter>
</defs>
<rect x="6" y="6" width="108" height="108" rx="30" fill="url(#b)"/>
<rect x="6" y="6" width="108" height="108" rx="30" fill="url(#h)"/>
<rect x="6.75" y="6.75" width="106.5" height="106.5" rx="29.3" fill="none" stroke="url(#s)" stroke-width="1.5"/>
<g filter="url(#g)" fill="none" stroke="#fff" stroke-width="5.5" stroke-linecap="round" stroke-linejoin="round"><path d="M41 60c0-15 10-25 24-25h7c10 0 18 8 18 18v10c0 8-4 13-10 15l-2 11H47l-4-10c-2-4-2-9-2-19z"/><path d="M47 89h32M41 63c7 0 11 4 11 11"/></g>
</svg>
